<svg xmlns="http://www.w3.org/2000/svg" width="24" height="24" version="1.1" viewBox="0 0 24 24"><path d="M3.640 2.380 C 3.079 2.506,2.542 2.872,2.301 3.292 C 2.240 3.397,2.197 3.489,2.205 3.495 C 2.231 3.516,3.191 3.960,3.209 3.960 C 3.219 3.960,3.282 3.883,3.350 3.788 C 3.421 3.689,3.564 3.566,3.687 3.498 C 3.879 3.392,3.936 3.380,4.260 3.380 C 4.671 3.380,4.834 3.447,4.990 3.678 C 5.098 3.839,5.112 3.981,5.015 3.944 C 4.870 3.888,4.012 3.870,3.720 3.917 C 2.655 4.089,2.081 4.574,2.080 5.304 C 2.080 5.818,2.359 6.218,2.889 6.460 C 3.520 6.749,4.468 6.750,5.035 6.462 L 5.240 6.359 5.240 6.479 L 5.240 6.600 5.840 6.600 L 6.440 6.600 6.440 5.262 C 6.440 4.424,6.423 3.845,6.395 3.712 C 6.271 3.127,5.838 2.658,5.217 2.436 C 4.904 2.323,4.028 2.293,3.640 2.380 M10.020 3.980 C 9.597 4.130,9.435 4.674,9.708 5.033 C 9.764 5.107,9.866 5.201,9.935 5.243 C 10.057 5.318,10.218 5.320,15.760 5.319 L 21.460 5.319 21.619 5.229 C 21.990 5.019,22.075 4.479,21.787 4.165 C 21.739 4.112,21.628 4.036,21.540 3.996 C 21.387 3.925,21.141 3.922,15.780 3.923 C 11.057 3.923,10.155 3.932,10.020 3.980 M5.034 4.906 C 5.119 4.929,5.127 4.949,5.108 5.090 C 5.066 5.399,4.723 5.628,4.240 5.668 C 3.789 5.705,3.440 5.551,3.440 5.314 C 3.440 5.080,3.542 4.986,3.900 4.893 C 4.099 4.841,4.831 4.849,5.034 4.906 M2.600 11.741 L 2.600 14.562 3.150 14.551 L 3.700 14.540 3.712 14.391 L 3.725 14.242 3.932 14.358 C 4.245 14.532,4.528 14.600,4.940 14.600 C 5.559 14.600,6.044 14.400,6.428 13.984 C 6.882 13.494,7.058 12.813,6.920 12.075 C 6.799 11.428,6.218 10.782,5.588 10.595 C 5.106 10.453,4.500 10.487,4.088 10.680 C 3.947 10.746,3.824 10.800,3.816 10.800 C 3.807 10.800,3.800 10.377,3.800 9.860 L 3.800 8.920 3.200 8.920 L 2.600 8.920 2.600 11.741 M10.056 11.436 C 9.592 11.719,9.579 12.366,10.032 12.648 L 10.180 12.740 14.720 12.752 C 17.802 12.760,19.306 12.750,19.405 12.722 C 19.600 12.665,19.746 12.543,19.841 12.358 C 20.004 12.039,19.888 11.639,19.583 11.459 L 19.413 11.360 14.796 11.360 C 10.346 11.360,10.176 11.363,10.056 11.436 M5.225 11.637 C 5.783 11.890,5.897 12.886,5.421 13.345 C 5.124 13.630,4.679 13.673,4.277 13.455 C 3.883 13.240,3.725 12.794,3.845 12.234 C 3.900 11.980,4.138 11.706,4.380 11.620 C 4.612 11.538,5.025 11.546,5.225 11.637 M4.260 17.259 C 3.721 17.378,3.307 17.609,2.960 17.985 C 2.580 18.397,2.442 18.769,2.442 19.380 C 2.442 19.815,2.486 20.024,2.645 20.336 C 2.922 20.881,3.327 21.211,4.000 21.440 C 4.359 21.562,5.146 21.595,5.533 21.504 C 6.071 21.377,6.487 21.099,6.749 20.688 C 6.825 20.570,6.881 20.469,6.873 20.463 C 6.866 20.458,6.634 20.345,6.358 20.213 L 5.856 19.972 5.633 20.179 C 5.365 20.429,5.157 20.499,4.769 20.471 C 4.356 20.442,4.072 20.262,3.898 19.920 C 3.809 19.745,3.775 19.240,3.837 19.012 C 3.945 18.609,4.311 18.328,4.773 18.291 C 5.124 18.262,5.384 18.353,5.649 18.598 L 5.857 18.788 6.357 18.552 C 6.632 18.422,6.864 18.309,6.872 18.301 C 6.907 18.267,6.548 17.795,6.388 17.664 C 5.904 17.268,5.001 17.096,4.260 17.259 M9.813 18.958 C 9.280 19.200,9.306 20.030,9.853 20.237 C 9.930 20.267,11.714 20.280,15.633 20.279 L 21.300 20.279 21.459 20.189 C 21.753 20.022,21.894 19.576,21.744 19.288 C 21.668 19.143,21.485 18.975,21.347 18.923 C 21.270 18.893,19.488 18.880,15.607 18.881 C 10.166 18.882,9.974 18.884,9.813 18.958 " stroke="none" fill-rule="evenodd" fill="black"></path></svg>