<svg xmlns="http://www.w3.org/2000/svg" xmlns:xlink="http://www.w3.org/1999/xlink" width="24" height="24" viewBox="0 0 24 24" version="1.1"><path d="M11.780 2.027 C 11.608 2.076,11.365 2.284,11.283 2.453 L 11.199 2.628 11.209 7.044 L 11.220 11.460 11.315 11.613 C 11.367 11.697,11.483 11.814,11.572 11.873 C 11.707 11.962,11.779 11.980,12.000 11.980 C 12.221 11.980,12.293 11.962,12.428 11.873 C 12.517 11.814,12.633 11.697,12.685 11.613 L 12.780 11.460 12.780 7.000 L 12.780 2.540 12.690 2.395 C 12.559 2.184,12.314 2.036,12.066 2.019 C 11.953 2.011,11.824 2.015,11.780 2.027 M7.016 3.343 C 6.172 3.789,5.086 4.691,4.371 5.540 C 2.432 7.845,1.631 10.844,2.163 13.806 C 2.517 15.775,3.485 17.608,4.939 19.061 C 6.530 20.652,8.434 21.593,10.740 21.928 C 11.290 22.008,12.829 21.995,13.400 21.906 C 15.635 21.559,17.503 20.620,19.062 19.062 C 20.620 17.503,21.561 15.631,21.906 13.400 C 22.006 12.753,22.007 11.243,21.908 10.600 C 21.829 10.087,21.681 9.434,21.555 9.040 C 20.955 7.156,19.814 5.472,18.307 4.245 C 17.938 3.945,17.204 3.448,16.941 3.320 C 16.411 3.064,15.764 3.487,15.810 4.060 C 15.819 4.170,15.858 4.328,15.898 4.411 C 15.973 4.568,16.006 4.595,16.651 5.019 C 17.960 5.880,18.985 7.091,19.668 8.580 C 20.218 9.780,20.474 11.256,20.367 12.610 C 20.277 13.752,20.032 14.667,19.556 15.642 C 19.072 16.633,18.597 17.285,17.789 18.064 C 16.576 19.234,15.118 19.973,13.400 20.289 C 12.733 20.411,11.267 20.411,10.600 20.289 C 8.880 19.973,7.426 19.236,6.211 18.064 C 5.448 17.328,4.955 16.667,4.506 15.780 C 3.883 14.547,3.622 13.427,3.623 12.000 C 3.625 10.583,3.876 9.484,4.473 8.290 C 5.191 6.854,6.304 5.626,7.578 4.867 C 7.943 4.649,8.095 4.492,8.159 4.265 C 8.264 3.887,8.106 3.514,7.764 3.333 C 7.524 3.206,7.269 3.210,7.016 3.343 " stroke="none" fill-rule="evenodd" fill="black"></path></svg>