<svg xmlns="http://www.w3.org/2000/svg" xmlns:xlink="http://www.w3.org/1999/xlink" width="24" height="24" viewBox="0 0 24 24" version="1.1"><path d="M11.780 2.027 C 11.609 2.075,11.365 2.284,11.284 2.452 C 11.202 2.621,11.200 2.677,11.200 4.566 L 11.200 6.507 11.293 6.684 C 11.344 6.781,11.463 6.914,11.557 6.980 C 11.706 7.085,11.761 7.100,12.000 7.100 C 12.239 7.100,12.294 7.085,12.443 6.980 C 12.537 6.914,12.656 6.779,12.708 6.681 L 12.803 6.502 12.791 4.521 C 12.780 2.546,12.780 2.540,12.690 2.395 C 12.559 2.184,12.314 2.036,12.066 2.019 C 11.953 2.011,11.824 2.015,11.780 2.027 M5.360 4.721 C 5.046 4.775,4.822 4.973,4.736 5.270 C 4.665 5.513,4.686 5.667,4.821 5.900 C 4.936 6.098,7.455 8.609,7.620 8.691 C 7.831 8.796,7.987 8.809,8.214 8.743 C 8.695 8.604,8.918 8.078,8.691 7.620 C 8.619 7.474,6.115 4.950,5.925 4.832 C 5.762 4.730,5.549 4.688,5.360 4.721 M18.357 4.721 C 18.278 4.734,18.152 4.784,18.077 4.831 C 17.886 4.950,15.382 7.473,15.309 7.620 C 15.082 8.078,15.305 8.604,15.786 8.743 C 16.013 8.809,16.169 8.796,16.380 8.691 C 16.545 8.609,19.064 6.098,19.179 5.900 C 19.314 5.667,19.335 5.513,19.264 5.270 C 19.152 4.881,18.770 4.651,18.357 4.721 M2.580 11.229 C 2.407 11.274,2.166 11.482,2.079 11.663 C 1.907 12.017,2.044 12.472,2.387 12.685 L 2.540 12.780 4.521 12.791 L 6.502 12.803 6.681 12.708 C 7.223 12.422,7.267 11.694,6.764 11.340 L 6.593 11.220 4.627 11.214 C 3.545 11.211,2.624 11.217,2.580 11.229 M17.427 11.240 C 17.242 11.297,17.054 11.466,16.959 11.661 C 16.775 12.043,16.934 12.505,17.319 12.708 L 17.498 12.803 19.479 12.791 L 21.460 12.780 21.613 12.685 C 21.697 12.633,21.814 12.517,21.873 12.428 C 21.962 12.293,21.980 12.221,21.980 12.003 C 21.980 11.687,21.887 11.510,21.630 11.335 L 21.460 11.220 19.500 11.213 C 18.422 11.209,17.489 11.221,17.427 11.240 M7.837 15.241 C 7.758 15.254,7.632 15.304,7.557 15.351 C 7.366 15.470,4.862 17.993,4.789 18.140 C 4.562 18.598,4.785 19.124,5.266 19.263 C 5.493 19.329,5.649 19.316,5.860 19.211 C 6.025 19.129,8.544 16.618,8.659 16.420 C 8.794 16.187,8.815 16.033,8.744 15.790 C 8.632 15.401,8.250 15.171,7.837 15.241 M15.842 15.247 C 15.332 15.337,15.060 15.949,15.329 16.402 C 15.455 16.615,17.968 19.125,18.140 19.211 C 18.470 19.374,18.802 19.320,19.061 19.061 C 19.320 18.802,19.374 18.470,19.211 18.140 C 19.139 17.994,16.635 15.470,16.445 15.352 C 16.272 15.244,16.066 15.208,15.842 15.247 M11.640 16.970 C 11.541 17.023,11.406 17.143,11.340 17.237 L 11.220 17.407 11.220 19.433 L 11.220 21.460 11.315 21.613 C 11.367 21.697,11.483 21.814,11.572 21.873 C 11.707 21.962,11.779 21.980,12.000 21.980 C 12.221 21.980,12.293 21.962,12.428 21.873 C 12.517 21.814,12.633 21.697,12.685 21.613 L 12.780 21.460 12.791 19.479 L 12.803 17.498 12.708 17.319 C 12.501 16.926,12.018 16.768,11.640 16.970 " stroke="none" fill="black" fill-rule="evenodd"></path></svg>